<?xml version="1.0" encoding="UTF-8" standalone="no"?>
<svg
   xmlns:dc="http://purl.org/dc/elements/1.1/"
   xmlns:cc="http://creativecommons.org/ns#"
   xmlns:rdf="http://www.w3.org/1999/02/22-rdf-syntax-ns#"
   xmlns:svg="http://www.w3.org/2000/svg"
   xmlns="http://www.w3.org/2000/svg"
   xmlns:sodipodi="http://sodipodi.sourceforge.net/DTD/sodipodi-0.dtd"
   xmlns:inkscape="http://www.inkscape.org/namespaces/inkscape"
   viewBox="0 0 121.51 23.19"
   version="1.1"
   id="svg52"
   sodipodi:docname="bru-logo.svg"
   inkscape:version="1.0.2-2 (e86c870879, 2021-01-15)">
  <metadata
     id="metadata56">
    <rdf:RDF>
      <cc:Work
         rdf:about="">
        <dc:format>image/svg+xml</dc:format>
        <dc:type
           rdf:resource="http://purl.org/dc/dcmitype/StillImage" />
        <dc:title>logo</dc:title>
      </cc:Work>
    </rdf:RDF>
  </metadata>
  <sodipodi:namedview
     pagecolor="#ffffff"
     bordercolor="#666666"
     borderopacity="1"
     objecttolerance="10"
     gridtolerance="10"
     guidetolerance="10"
     inkscape:pageopacity="0"
     inkscape:pageshadow="2"
     inkscape:window-width="2560"
     inkscape:window-height="1377"
     id="namedview54"
     showgrid="false"
     inkscape:pagecheckerboard="true"
     inkscape:zoom="11.313709"
     inkscape:cx="52.358997"
     inkscape:cy="-1.7062896"
     inkscape:window-x="-8"
     inkscape:window-y="732"
     inkscape:window-maximized="1"
     inkscape:current-layer="svg52" />
  <defs
     id="defs36">
    <style
       id="style34">.a{fill:#fff;}</style>
  </defs>
  <title
     id="title38">logo</title>
  <path
     class="a"
     d="m 62,22.79 h 8.560003 c 3.48,0 6.86,-2 6.86,-6.3 0.05569,-2.830617 -4.89,-5.51 -4.89,-5.51 v 0 c 0,0 4.264091,-2.7744124 4.22,-5.33 0,-3.67 -2.52,-5.59 -6.36,-5.59 H 62 Z m 2,-1.73 v -9.08 h 6.000003 c 3,0 5.37,1.37 5.37,4.5 0,3.13 -2.33,4.63 -5.31,4.63 z M 64,10.23 V 1.7 h 5.910003 c 2.71,0 4.85,1.25 4.85,4.19 0,2.9400002 -2.46,4.34 -5.14,4.34 z"
     id="path40-0"
     style="fill:#ffffff"
     sodipodi:nodetypes="cscsscsccccssccccsssc" />
  <path
     class="a"
     d="m 112.27781,23.19 c 5.33,0 9.23,-3.06 9.23,-8.63 V 0 h -4.96 v 14.41 c 0,3 -1.47,4.5 -4.21,4.5 -3,0 -4.29,-1.82 -4.29,-4.5 V 0 h -5 v 14.85 c 0,5.59 3.65,8.34 9.17,8.34"
     id="path42-9"
     style="fill:#ffffff"
     sodipodi:nodetypes="csccsssccsc" />
  <path
     class="a"
     d="m 95.087807,15.18 c 2.732866,-1.3485 4.462229,-4.132541 4.46,-7.18 0.191551,-4.4952312 -3.504769,-8.1915506 -8,-8 h -10 v 22.79 h 5 V 4 h 3.89 c 2.68,0 4.21,1.7 4.21,4 0,2 -1.2,4 -4.28,4 h -3.11 l 7.83,10.87 h 5.460003 z"
     id="path44-7"
     style="fill:#ffffff"
     sodipodi:nodetypes="cccccccssscccc" />
  <path
     class="a"
     d="m 25.51,5.319999 h 0.59 v -4.3 0 l 1.58,3.05 h 0.48 l 1.58,-3.06 v 0 4.31 h 0.59 v -5.37 H 29.57 L 27.91,3.24 v 0 l -1.65,-3.290001 h -0.75 z m -3.29,0.09 c 1.101496,0.1173688 2.049076,-0.7733566 2,-1.88 v -3.58 h -0.6 v 3.53 c 0.08814,0.7958098 -0.58419,1.4681359 -1.38,1.38 -0.799991,0.072891 -1.468623,-0.6005518 -1.39,-1.4 v -3.51 h -0.61 v 3.6 C 20.18792,4.6537772 21.14362,5.5378019 22.24,5.4 M 15.02,5.31 h 0.61 v -2.5 h 2.72 v 2.51 h 0.56 V -0.050001 H 18.3 v 2.33 h -2.69 v -2.33 H 15 Z m -3,0.1 c 0.979055,0.1174934 1.850348,-0.6247191 1.89,-1.610001 v -0.19 h -0.58 v 0.11 c 0,0.73 -0.54,1.15 -1.32,1.15 -0.795812,0.1025618 -1.500548,-0.517606 -1.5,-1.32 v -1.8 C 10.49734,0.9793475 11.140319,0.3593299 11.91,0.4 c 0.79,0 1.36,0.42 1.36,1.149999 v 0.18 h 0.64 v -0.26 c -0.0518,-1.0263964 -0.986222,-1.7786067 -2,-1.61 -1.090454,-0.0636 -2.0076325,0.8077191 -2,1.9 v 1.86 c 0.00927,1.0957416 0.972914,1.9377603 2.06,1.8 m -5.18,-0.55 c -0.781447,0.084066 -1.4605084,-0.5341144 -1.45,-1.32 v -1.77 c -0.037783,-0.7948283 0.6261596,-1.4447436 1.42,-1.39 0.7776814,-0.1034172 1.4668462,0.5055024 1.46,1.29 v 1.87 C 8.240631,4.3361235 7.5736372,4.9658036 6.79,4.9 m 0,0.55 c 1.103415,0.046166 2.0182213,-0.84577 2,-1.95 V 1.7 C 8.78683,0.6182153 7.8691719,-0.2352092 6.79,-0.16 5.686585,-0.206166 4.7717787,0.68577 4.79,1.79 v 1.829999 c 0.016533,1.0881908 0.9688094,1.9243356 2.05,1.8 M 0.61,2.31 V 0.47 h 1.3 c 0.61,0 1.07,0.26 1.07,0.899999 C 2.98,2.009999 2.47,2.31 1.87,2.31 Z m 0,2.489999 v -2 h 1.38 c 0.66,0 1.16,0.29 1.16,1 0,0.71 -0.5,1 -1.15,1 z m -0.61,0.52 h 2.12 c 0.882472,0.082734 1.6438698,-0.6136667 1.64,-1.5 0.00207,-0.6351325 -1.09,-1.27 -1.09,-1.27 v 0 c 0,0 0.9426331,-0.6461528 0.93,-1.22 C 3.6,0.45 3,0 2.06,0 H 0 Z"
     id="path46-0"
     style="fill:#ffffff"
     sodipodi:nodetypes="cccccccccccccccccccccccccccccccccccccccccccccsccccscccccccccccccccccccccccssscccsssccccsscscc" />
  <path
     class="a"
     d="m 44.64,22.79 h 1 v -4.51 h 1.55 v -0.86 h -4.1 v 0.86 h 1.55 z M 41.11,16.93 H 42 v -1 h -0.9 z m -1.5,0 h 0.89 v -1 h -0.89 z m 0.39,3.85 0.73,-2.14 v 0 l 0.73,2.14 z m -1.68,2 h 1 l 0.41,-1.15 h 2.05 l 0.39,1.15 h 1.06 l -2,-5.37 h -0.92 z m -2.31,0 h 1 v -4.5 h 1.55 v -0.86 h -4.05 v 0.86 h 1.54 z m -3.44,0 h 1 v -5.36 h -1 z m -3.07,0.08 c 1.18,0 2.06,-0.65 2.06,-1.64 0.05619,-0.736154 -0.461105,-1.392559 -1.19,-1.51 l -0.92,-0.23 c -0.42,-0.11 -0.78,-0.29 -0.78,-0.66 0,-0.37 0.42,-0.68 0.86,-0.68 0.474907,-0.05229 0.932677,0.19451 1.15,0.62 L 31.5,18.4 c -0.308891,-0.752756 -1.08212,-1.206875 -1.89,-1.11 -0.982547,-0.123194 -1.863993,0.611345 -1.92,1.6 0,0.95 0.57,1.28 1.29,1.46 l 0.9,0.21 c 0.42,0.13 0.74,0.31 0.74,0.71 0,0.4 -0.51,0.7 -1.05,0.7 -0.562482,0.03785 -1.086099,-0.288402 -1.3,-0.81 l -0.9,0.36 c 0.339525,0.881831 1.230804,1.423991 2.17,1.32 M 23.69,19.9 v -1.64 h 1 c 0.55,0 1,0.2 1,0.84 0,0.64 -0.39,0.83 -1,0.83 z m -1,2.86 h 1 v -2 h 0.87 l 1.25,2 h 1.1 l -1.34,-2.05 c 0.658791,-0.230898 1.09184,-0.862259 1.07,-1.56 0.01725,-0.99548 -0.839621,-1.782111 -1.83,-1.68 h -2.12 z m -4.86,0 h 3.76 v -0.89 h -2.76 v -1.38 h 2.42 V 19.61 H 18.83 V 18.3 h 2.73 v -0.88 h -3.73 z m -3.45,0 h 1 l 1.78,-5.39 h -1 l -1.21,3.95 v 0 l -1.25,-3.9 h -1.08 z m -3.46,0 h 1 v -5.34 h -1 z m -5.52,0 h 1 v -3.64 0 l 2.3300002,3.67 h 1 v -5.37 h -1 v 3.66 0 L 6.37,17.42 h -1 z m -3.3,0.08 c 1.165108,0.118092 2.1611511,-0.83052 2.1,-2 v -3.42 h -1 v 3.39 c 0,0.77 -0.37,1.16 -1.1,1.16 C 1.4386246,22.04587 0.88914904,21.466418 1,20.81 V 17.42 H 0 v 3.52 c -0.0611039,1.159932 0.94933473,2.088573 2.1,1.93"
     id="path48-9"
     style="fill:#ffffff"
     sodipodi:nodetypes="cccccccccccccccccccccccccccccccccccccccccccccccccccscccccccsccccccsscccccccccccccccccccccccccccccccccccccccccccccccccccccccccscccccc" />
  <path
     class="a"
     d="M 16.84,11.24 V 9.57 h 1 c 0.56,0 1,0.2 1,0.84 0,0.64 -0.39,0.83 -1,0.83 z m -1,2.85 h 1 v -2 h 0.87 l 1.26,2 h 1.09 l -1.33,-2.12 c 0.652811,-0.236955 1.080107,-0.865806 1.06,-1.56 C 19.81682,9.4241 18.983207,8.632398 18,8.71 h -2.16 z m -5.38,0 h 1 V 11.8 h 2.14 v 2.29 h 1 V 8.71 h -1 v 2.2 h -2.14 v -2.2 h -1 z m -3.2999998,0.09 c 1.165108,0.118092 2.1611511,-0.83052 2.1,-2 V 8.71 h -1 v 3.4 c 0,0.77 -0.36,1.16 -1.09,1.16 C 6.5055851,13.35895 5.9435205,12.781832 6.05,12.12 V 8.71 h -1 v 3.53 c -0.061,1.165401 0.9538108,2.09845 2.1100002,1.94 M 1,11.24 V 9.57 h 1 c 0.55,0 1,0.2 1,0.84 0,0.64 -0.39,0.83 -1,0.83 z m -1,2.85 h 1 v -2 h 0.87 l 1.25,2 H 4.25 L 2.92,11.97 C 3.5848112,11.745309 4.023703,11.111354 4,10.41 4.030293,9.402101 3.1623591,8.600205 2.16,8.71 H 0 Z"
     id="path50-1"
     style="fill:#ffffff"
     sodipodi:nodetypes="ccssscccccccccccccccccccccccccccccsccccccccssscccccccccccc" />
</svg>
